<?xml version="1.0" encoding="utf-8"?>
<svg version="1.1" xmlns:xlink="http://www.w3.org/1999/xlink" width="118px" height="118px" xmlns="http://www.w3.org/2000/svg">
  <g transform="matrix(1 0 0 1 -233 -215 )">
    <path d="M 292 219  C 322.8 219  347 243.2  347 274  C 347 304.8  322.8 329  292 329  C 261.2 329  237 304.8  237 274  C 237 243.2  261.2 219  292 219  Z " fill-rule="nonzero" fill="#ffffff" stroke="none" />
    <path d="M 292 217.5  C 323.64 217.5  348.5 242.36  348.5 274  C 348.5 305.64  323.64 330.5  292 330.5  C 260.36 330.5  235.5 305.64  235.5 274  C 235.5 242.36  260.36 217.5  292 217.5  Z " stroke-width="5" stroke="#00ff99" fill="none" />
  </g>
</svg>